<mxfile host="app.diagrams.net" agent="Mozilla/5.0 (Windows NT 10.0; Win64; x64) AppleWebKit/537.36 (KHTML, like Gecko) Chrome/136.0.0.0 Safari/537.36" version="27.0.6">
  <diagram name="第 1 页" id="OY6KemoRL2oodAjpf0tS">
    <mxGraphModel dx="808" dy="1769" grid="1" gridSize="10" guides="1" tooltips="1" connect="1" arrows="1" fold="1" page="1" pageScale="1" pageWidth="827" pageHeight="1169" math="0" shadow="0">
      <root>
        <mxCell id="0" />
        <mxCell id="1" parent="0" />
        <mxCell id="7RhTvnafXA60cA6STB_F-2" value="&lt;font style=&quot;font-size: 15px;&quot;&gt;是&lt;/font&gt;" style="edgeStyle=orthogonalEdgeStyle;rounded=0;orthogonalLoop=1;jettySize=auto;html=1;entryX=0.5;entryY=0;entryDx=0;entryDy=0;" edge="1" parent="1" source="lwp1otFU_7bIzwF2G85L-1" target="7RhTvnafXA60cA6STB_F-1">
          <mxGeometry relative="1" as="geometry" />
        </mxCell>
        <mxCell id="7RhTvnafXA60cA6STB_F-13" value="&lt;font style=&quot;font-size: 19px;&quot;&gt;否&lt;/font&gt;" style="edgeStyle=orthogonalEdgeStyle;rounded=0;orthogonalLoop=1;jettySize=auto;html=1;entryX=0;entryY=0.5;entryDx=0;entryDy=0;" edge="1" parent="1" source="lwp1otFU_7bIzwF2G85L-1" target="7RhTvnafXA60cA6STB_F-7">
          <mxGeometry relative="1" as="geometry">
            <mxPoint x="230" y="560" as="targetPoint" />
            <Array as="points">
              <mxPoint x="240" y="290" />
              <mxPoint x="240" y="570" />
            </Array>
          </mxGeometry>
        </mxCell>
        <mxCell id="lwp1otFU_7bIzwF2G85L-1" value="&lt;font style=&quot;font-size: 15px;&quot;&gt;LLM判断&lt;/font&gt;&lt;div&gt;&lt;font style=&quot;font-size: 15px;&quot;&gt;是否需要使用工具&lt;/font&gt;&lt;/div&gt;" style="rhombus;whiteSpace=wrap;html=1;" parent="1" vertex="1">
          <mxGeometry x="360" y="250" width="160" height="80" as="geometry" />
        </mxCell>
        <mxCell id="7RhTvnafXA60cA6STB_F-4" style="edgeStyle=orthogonalEdgeStyle;rounded=0;orthogonalLoop=1;jettySize=auto;html=1;entryX=0.5;entryY=0;entryDx=0;entryDy=0;" edge="1" parent="1" source="7RhTvnafXA60cA6STB_F-1" target="7RhTvnafXA60cA6STB_F-3">
          <mxGeometry relative="1" as="geometry" />
        </mxCell>
        <mxCell id="7RhTvnafXA60cA6STB_F-1" value="&lt;font style=&quot;font-size: 15px;&quot;&gt;使用MCP Client&lt;/font&gt;&lt;div&gt;&lt;font style=&quot;font-size: 15px;&quot;&gt;调用工具&lt;/font&gt;&lt;/div&gt;" style="rounded=1;whiteSpace=wrap;html=1;" vertex="1" parent="1">
          <mxGeometry x="380" y="360" width="120" height="60" as="geometry" />
        </mxCell>
        <mxCell id="7RhTvnafXA60cA6STB_F-9" style="edgeStyle=orthogonalEdgeStyle;rounded=0;orthogonalLoop=1;jettySize=auto;html=1;entryX=0.5;entryY=0;entryDx=0;entryDy=0;" edge="1" parent="1" source="7RhTvnafXA60cA6STB_F-3" target="7RhTvnafXA60cA6STB_F-7">
          <mxGeometry relative="1" as="geometry" />
        </mxCell>
        <mxCell id="7RhTvnafXA60cA6STB_F-3" value="&lt;span style=&quot;font-size: 15px;&quot;&gt;工具返回结果&lt;/span&gt;&lt;div&gt;&lt;span style=&quot;font-size: 15px;&quot;&gt;并把结果输入LLM&lt;/span&gt;&lt;/div&gt;" style="rounded=1;whiteSpace=wrap;html=1;" vertex="1" parent="1">
          <mxGeometry x="380" y="450" width="120" height="60" as="geometry" />
        </mxCell>
        <mxCell id="7RhTvnafXA60cA6STB_F-6" style="edgeStyle=orthogonalEdgeStyle;rounded=0;orthogonalLoop=1;jettySize=auto;html=1;entryX=0.5;entryY=0;entryDx=0;entryDy=0;" edge="1" parent="1" source="7RhTvnafXA60cA6STB_F-5" target="lwp1otFU_7bIzwF2G85L-1">
          <mxGeometry relative="1" as="geometry" />
        </mxCell>
        <mxCell id="7RhTvnafXA60cA6STB_F-5" value="&lt;span style=&quot;font-size: 15px;&quot;&gt;把工具描述和用户问题输入LLM&lt;/span&gt;" style="rounded=1;whiteSpace=wrap;html=1;" vertex="1" parent="1">
          <mxGeometry x="380" y="160" width="120" height="60" as="geometry" />
        </mxCell>
        <mxCell id="7RhTvnafXA60cA6STB_F-7" value="&lt;span style=&quot;font-size: 15px;&quot;&gt;LLM输出&lt;/span&gt;&lt;div&gt;&lt;span style=&quot;font-size: 15px;&quot;&gt;最后回答&lt;/span&gt;&lt;/div&gt;" style="rounded=1;whiteSpace=wrap;html=1;" vertex="1" parent="1">
          <mxGeometry x="380" y="540" width="120" height="60" as="geometry" />
        </mxCell>
        <mxCell id="7RhTvnafXA60cA6STB_F-12" style="edgeStyle=orthogonalEdgeStyle;rounded=0;orthogonalLoop=1;jettySize=auto;html=1;entryX=0.5;entryY=0;entryDx=0;entryDy=0;" edge="1" parent="1" source="7RhTvnafXA60cA6STB_F-11" target="7RhTvnafXA60cA6STB_F-5">
          <mxGeometry relative="1" as="geometry" />
        </mxCell>
        <mxCell id="7RhTvnafXA60cA6STB_F-11" value="&lt;span style=&quot;font-size: 15px;&quot;&gt;MCP客户端&lt;/span&gt;&lt;div&gt;&lt;span style=&quot;font-size: 15px;&quot;&gt;调用MCP SERVER获得工具信息&lt;/span&gt;&lt;/div&gt;" style="rounded=1;whiteSpace=wrap;html=1;" vertex="1" parent="1">
          <mxGeometry x="370" y="70" width="140" height="60" as="geometry" />
        </mxCell>
        <mxCell id="7RhTvnafXA60cA6STB_F-15" style="edgeStyle=orthogonalEdgeStyle;rounded=0;orthogonalLoop=1;jettySize=auto;html=1;entryX=1;entryY=0.5;entryDx=0;entryDy=0;" edge="1" parent="1" source="7RhTvnafXA60cA6STB_F-14" target="7RhTvnafXA60cA6STB_F-5">
          <mxGeometry relative="1" as="geometry" />
        </mxCell>
        <mxCell id="7RhTvnafXA60cA6STB_F-14" value="&lt;font style=&quot;font-size: 16px;&quot;&gt;用户输入问题&lt;/font&gt;" style="shape=document;whiteSpace=wrap;html=1;boundedLbl=1;" vertex="1" parent="1">
          <mxGeometry x="640" y="150" width="120" height="80" as="geometry" />
        </mxCell>
        <mxCell id="7RhTvnafXA60cA6STB_F-16" style="edgeStyle=orthogonalEdgeStyle;rounded=0;orthogonalLoop=1;jettySize=auto;html=1;entryX=0.496;entryY=0.868;entryDx=0;entryDy=0;entryPerimeter=0;" edge="1" parent="1" source="7RhTvnafXA60cA6STB_F-7" target="7RhTvnafXA60cA6STB_F-14">
          <mxGeometry relative="1" as="geometry" />
        </mxCell>
        <mxCell id="7RhTvnafXA60cA6STB_F-18" style="edgeStyle=orthogonalEdgeStyle;rounded=0;orthogonalLoop=1;jettySize=auto;html=1;entryX=0.5;entryY=0;entryDx=0;entryDy=0;" edge="1" parent="1" source="7RhTvnafXA60cA6STB_F-17" target="7RhTvnafXA60cA6STB_F-11">
          <mxGeometry relative="1" as="geometry" />
        </mxCell>
        <mxCell id="7RhTvnafXA60cA6STB_F-17" value="&lt;font style=&quot;font-size: 16px;&quot;&gt;应用开始&lt;/font&gt;" style="strokeWidth=2;html=1;shape=mxgraph.flowchart.terminator;whiteSpace=wrap;" vertex="1" parent="1">
          <mxGeometry x="390" width="100" height="40" as="geometry" />
        </mxCell>
      </root>
    </mxGraphModel>
  </diagram>
</mxfile>
